<?xml version="1.0" standalone="no"?>
<!DOCTYPE svg PUBLIC "-//W3C//DTD SVG 20010904//EN"
 "http://www.w3.org/TR/2001/REC-SVG-20010904/DTD/svg10.dtd">
<svg version="1.0" xmlns="http://www.w3.org/2000/svg"
 width="1536.000000pt" height="1024.000000pt" viewBox="0 0 1536.000000 1024.000000"
 preserveAspectRatio="xMidYMid meet">

<g transform="translate(0.000000,1024.000000) scale(0.100000,-0.100000)"
fill="#000000" stroke="none">
<path d="M0 5120 l0 -5120 7680 0 7680 0 0 5120 0 5120 -7680 0 -7680 0 0
-5120z m12707 2619 c4 -86 1 -122 -16 -189 -119 -472 -716 -1008 -1519 -1364
-124 -55 -564 -187 -578 -174 -2 2 11 18 29 35 20 19 80 49 162 81 72 29 126
52 120 52 -5 0 -55 -14 -110 -30 -55 -16 -112 -30 -127 -30 -26 0 -27 2 -16
25 6 13 16 25 22 27 21 6 271 141 381 206 243 145 448 285 745 512 104 79 370
322 447 408 43 48 81 89 84 92 10 9 93 113 135 170 38 51 154 242 154 253 0 2
12 31 27 63 l27 59 14 -45 c8 -25 17 -93 19 -151z m-9950 53 c145 -299 407
-588 855 -945 258 -205 659 -464 950 -612 111 -57 139 -75 147 -97 6 -16 7
-28 2 -28 -11 0 -169 55 -214 75 -22 9 -43 15 -49 13 -5 -2 28 -19 74 -38 129
-52 211 -97 231 -125 11 -15 17 -28 15 -30 -5 -5 -304 80 -414 118 -407 140
-903 439 -1233 742 -90 83 -229 245 -293 340 -124 187 -181 345 -182 505 -1
91 23 211 42 209 4 0 35 -57 69 -127z m79 -743 c178 -174 215 -207 354 -318
290 -231 560 -401 936 -589 139 -70 170 -110 59 -77 -32 9 -59 15 -60 13 -2
-2 24 -18 58 -36 53 -27 97 -71 97 -96 0 -9 -190 60 -317 115 -148 65 -332
156 -420 210 -38 23 -72 44 -77 47 -5 3 -6 0 -2 -6 25 -40 621 -367 779 -427
27 -10 67 -36 89 -57 39 -37 39 -38 14 -38 -36 0 -267 61 -436 115 -447 143
-747 317 -1002 583 -211 220 -326 462 -333 703 -5 160 -4 162 65 71 32 -42
120 -138 196 -213z m9948 244 c25 -154 -40 -395 -154 -575 -264 -415 -742
-715 -1408 -882 -75 -19 -159 -37 -186 -41 l-50 -8 35 35 c23 24 77 54 164 92
259 114 619 315 720 401 23 19 17 17 -25 -8 -109 -68 -228 -130 -389 -203
-163 -75 -400 -168 -408 -161 -12 13 38 69 77 87 25 12 56 30 70 40 l25 19
-45 -13 c-93 -27 -102 -28 -98 -11 2 9 79 55 178 106 378 196 616 350 922 596
203 163 548 512 548 554 0 5 4 9 9 9 4 0 11 -17 15 -37z m-9827 -1046 c354
-187 806 -366 1308 -517 191 -58 305 -98 305 -109 0 -10 -127 -2 -214 14 -111
21 -122 18 -36 -11 116 -38 125 -44 137 -83 6 -20 10 -37 9 -39 -5 -4 -296 55
-406 83 -132 33 -302 88 -376 121 -31 14 -58 23 -60 21 -8 -8 151 -74 286
-120 147 -50 564 -177 583 -177 7 0 27 -19 46 -41 l34 -41 -189 5 c-104 3
-205 8 -224 11 -19 4 -78 14 -130 22 -487 78 -919 302 -1162 601 -102 125
-181 285 -195 391 l-5 43 73 -50 c41 -27 138 -83 216 -124z m9718 97 c-31
-133 -102 -263 -217 -394 -230 -262 -581 -449 -1023 -545 -169 -36 -645 -77
-645 -55 0 5 4 10 10 10 5 0 20 16 32 35 13 19 29 35 36 35 7 0 48 11 90 24
42 13 115 36 162 50 279 83 504 161 556 190 16 10 20 14 9 11 -11 -4 -72 -24
-135 -45 -201 -66 -551 -150 -629 -150 -25 0 -28 3 -24 24 7 33 29 51 99 81
56 24 57 25 19 20 -22 -3 -82 -8 -134 -11 -140 -9 -115 10 94 71 156 46 587
185 665 215 227 87 326 127 430 173 179 79 436 213 530 277 47 32 86 56 88 55
2 -2 -4 -33 -13 -71z m-7869 -15 c89 -95 284 -223 444 -290 183 -76 438 -151
730 -213 507 -108 700 -182 856 -328 51 -48 74 -80 106 -146 38 -78 42 -93 46
-184 5 -108 -3 -157 -48 -298 -39 -122 -44 -172 -25 -254 31 -133 87 -207 252
-338 164 -130 278 -244 308 -310 38 -83 51 -181 36 -266 -13 -74 -57 -178 -84
-201 -15 -12 -17 -10 -17 21 0 55 -29 149 -63 207 -48 80 -143 161 -313 266
-261 163 -350 245 -419 389 -39 81 -54 140 -55 211 l-1 50 -23 -70 c-12 -38
-28 -80 -35 -93 -27 -50 -123 -81 -150 -49 -25 30 64 215 153 317 19 22 19 23
1 10 -11 -8 -48 -41 -83 -72 -91 -84 -134 -103 -224 -99 -23 1 -28 6 -28 28 0
40 43 104 96 143 26 19 93 59 148 88 56 29 92 50 81 47 -11 -4 -33 -9 -50 -12
-16 -3 -73 -25 -125 -49 -129 -58 -205 -72 -264 -50 -83 32 -82 53 4 108 71
45 280 98 388 98 25 0 43 3 39 6 -13 13 -220 2 -308 -16 -112 -24 -216 -26
-267 -5 -36 16 -82 52 -82 66 0 13 123 56 195 69 45 8 135 11 252 9 100 -3
179 -1 175 2 -23 20 -230 38 -417 36 -170 -2 -208 1 -251 16 -52 18 -127 82
-121 101 2 6 28 15 58 19 76 12 399 0 494 -18 44 -8 94 -18 112 -21 17 -3 62
-14 99 -24 37 -11 69 -18 71 -16 5 5 -97 40 -202 71 -121 35 -229 54 -350 60
-148 8 -182 13 -267 34 -96 25 -147 51 -205 104 -42 38 -81 102 -70 114 3 2
22 0 44 -6 21 -6 158 -33 303 -61 289 -54 578 -124 679 -164 36 -14 66 -24 69
-22 7 8 -123 64 -238 104 -137 46 -215 66 -500 128 -415 89 -655 190 -827 347
-94 86 -158 197 -174 302 -11 66 -6 135 10 135 4 0 20 -14 37 -31z m5798 15
c11 -29 6 -110 -10 -165 -37 -124 -147 -260 -279 -344 -86 -55 -246 -129 -355
-165 -82 -26 -369 -99 -510 -129 -207 -45 -391 -102 -516 -160 -46 -22 -84
-42 -84 -46 0 -3 10 -1 21 6 68 36 391 120 664 173 333 64 381 74 398 81 24
10 22 -10 -8 -60 -61 -105 -224 -169 -480 -190 -177 -14 -233 -23 -375 -62
-84 -22 -212 -65 -208 -69 2 -1 38 6 80 16 179 46 316 63 513 64 105 0 200 -4
212 -10 23 -9 23 -9 4 -41 -12 -19 -42 -42 -78 -59 l-58 -29 -200 2 c-185 2
-310 -8 -443 -35 -19 -4 73 -7 205 -7 255 0 326 -9 385 -48 18 -13 33 -29 33
-37 0 -8 -22 -26 -50 -40 -44 -22 -62 -25 -155 -24 -64 1 -128 7 -165 17 -41
12 -95 17 -180 16 l-120 -1 150 -23 c83 -12 179 -32 215 -43 76 -25 160 -75
160 -97 0 -27 -75 -56 -148 -56 -77 0 -88 3 -241 65 -63 26 -118 45 -122 44
-4 -2 40 -28 99 -58 131 -67 222 -148 222 -197 0 -35 -13 -43 -71 -43 -56 0
-111 31 -195 111 -40 38 -75 69 -78 69 -3 0 23 -39 59 -87 78 -105 115 -176
115 -219 0 -27 -4 -33 -28 -39 -69 -15 -129 45 -152 151 -18 88 -20 94 -28 94
-4 0 -7 -35 -7 -78 -1 -92 -21 -161 -77 -257 -72 -122 -172 -208 -423 -360
-113 -69 -173 -115 -223 -169 -58 -63 -110 -174 -118 -253 -4 -35 -11 -63 -15
-63 -5 0 -27 39 -51 87 -39 81 -42 93 -44 181 -5 189 67 301 306 481 268 202
342 361 279 597 -12 43 -29 108 -39 144 -11 40 -17 100 -17 155 0 256 154 432
484 554 88 32 295 86 503 131 410 88 622 156 863 276 128 64 204 116 297 202
36 34 68 61 71 62 4 0 10 -7 13 -16z m-6223 -287 c30 -13 90 -34 134 -46 44
-13 114 -34 155 -46 41 -13 94 -28 118 -35 28 -7 80 -40 144 -89 55 -44 150
-105 212 -136 l111 -58 -60 7 c-69 7 -209 43 -310 80 -107 39 -88 24 32 -27
121 -50 204 -79 278 -97 88 -21 145 -44 145 -57 0 -18 -284 -8 -393 13 -80 16
-206 56 -289 92 -125 55 -245 158 -295 255 -26 50 -53 167 -39 167 2 0 28 -10
57 -23z m6656 -19 c-3 -22 -22 -74 -41 -114 -86 -173 -304 -304 -596 -359
-109 -20 -384 -32 -394 -17 -10 16 15 26 145 60 128 34 291 92 359 129 25 13
36 21 25 17 -179 -61 -397 -115 -412 -101 -2 3 38 26 89 52 114 58 200 115
254 167 38 36 59 45 265 107 123 38 240 75 259 84 51 22 53 21 47 -25z m-222
-543 c-139 -274 -532 -380 -1013 -271 -71 15 -83 23 -62 37 13 8 13 10 0 19
-8 5 -13 10 -10 10 3 1 91 5 195 10 120 6 223 17 280 30 80 17 83 19 30 13
-64 -6 -337 -5 -370 1 -11 3 -32 5 -47 5 -16 1 -28 4 -28 9 0 10 87 45 119 47
14 1 36 3 49 3 12 1 22 7 22 13 0 7 -14 10 -35 7 -41 -5 -43 -1 -12 28 18 17
40 23 112 28 215 16 427 37 590 61 55 8 120 16 144 19 24 3 47 9 50 12 3 3 8
-2 9 -11 2 -9 -8 -40 -23 -70z m-6165 55 c43 -9 237 -25 252 -22 4 1 38 -5 75
-12 38 -8 147 -20 243 -27 152 -11 178 -15 198 -33 l23 -20 -22 -8 c-12 -5
-30 -6 -40 -3 -9 3 -20 2 -23 -3 -3 -5 23 -12 57 -15 35 -3 81 -15 107 -29
l45 -23 -40 -7 c-22 -4 -125 -8 -230 -9 -187 -1 -189 -2 -125 -15 36 -7 145
-16 244 -20 162 -7 179 -9 184 -26 2 -10 8 -18 13 -18 5 0 9 -4 9 -9 0 -5 -30
-16 -67 -25 -316 -74 -580 -56 -787 52 -118 62 -218 172 -240 264 -6 26 -5 26
37 21 23 -2 62 -8 87 -13z m-1442 -19 c133 -67 783 -203 1172 -246 216 -24
314 -42 357 -67 l38 -23 -140 -5 c-77 -3 -135 -8 -130 -11 6 -4 75 -7 155 -7
190 -1 196 -2 121 -18 -36 -8 -68 -19 -72 -25 -4 -7 -3 -25 2 -42 5 -17 8 -31
6 -32 -6 -3 -366 14 -392 19 -16 3 -59 10 -95 15 -36 6 -81 15 -100 21 -53 15
-71 11 -20 -5 84 -27 329 -73 557 -105 74 -11 84 -16 118 -50 l36 -37 -48 -7
c-178 -25 -291 -36 -378 -36 -518 0 -979 229 -1199 595 -33 55 -44 85 -31 85
3 0 22 -8 43 -19z m8972 -33 c-94 -181 -290 -364 -505 -471 -147 -73 -263
-106 -528 -148 -72 -11 -338 -8 -437 6 -59 8 -104 15 -138 21 l-34 7 43 43
c40 41 47 44 96 44 83 0 653 113 639 127 -2 2 -73 -10 -157 -27 -121 -24 -191
-32 -332 -37 l-180 -6 7 29 c4 16 14 34 22 41 21 16 10 20 -79 28 -52 5 -75
11 -69 17 6 6 42 8 89 4 104 -8 158 -7 218 3 45 8 38 9 -60 11 -60 1 -123 5
-140 9 l-30 7 35 19 c41 21 132 40 245 50 44 4 139 15 210 25 72 11 153 22
180 26 28 3 52 8 55 9 3 2 26 6 50 10 206 29 612 126 750 178 36 14 67 23 69
21 2 -2 -7 -22 -19 -46z m-6495 -338 c25 -17 27 -20 10 -20 -11 -1 -33 -7 -50
-16 l-30 -14 43 5 c51 6 144 -4 137 -15 -16 -26 -198 -81 -355 -106 l-85 -13
90 4 c50 3 142 14 205 25 134 23 140 24 140 9 0 -7 8 -17 17 -24 15 -11 11
-16 -34 -39 -81 -40 -194 -83 -285 -107 -67 -18 -112 -22 -228 -23 -134 0
-151 2 -220 27 -93 34 -167 82 -212 139 -31 38 -74 108 -66 108 55 0 220 10
226 14 4 2 50 7 102 10 269 18 335 24 460 46 75 13 104 11 135 -10z m4145 4
c149 -21 247 -31 385 -39 66 -4 129 -9 140 -11 11 -3 70 -7 132 -11 l112 -6
-19 -36 c-23 -45 -110 -128 -173 -165 -70 -42 -176 -66 -307 -73 -106 -5 -124
-3 -230 25 -124 33 -269 90 -310 122 -20 16 -22 20 -7 20 10 0 17 8 17 20 0
23 -4 23 57 10 85 -17 105 -20 251 -36 79 -8 149 -13 155 -11 7 2 -17 7 -53
11 -151 17 -409 87 -418 114 -3 11 77 18 146 12 12 -1 22 3 22 8 0 11 -34 22
-69 22 l-23 0 23 20 c29 23 35 23 169 4z m-3922 -246 c9 -9 3 -17 -26 -36 -20
-13 -29 -21 -19 -18 11 3 31 9 45 12 15 4 33 11 40 17 16 13 15 2 -3 -34 -12
-22 -42 -42 -128 -83 -62 -30 -137 -62 -167 -72 -30 -10 -50 -19 -44 -21 6 -2
84 22 174 52 99 34 166 52 168 46 2 -6 13 -11 25 -11 20 -1 18 -4 -13 -31 -19
-17 -66 -52 -105 -78 -158 -108 -261 -141 -429 -138 -97 2 -118 5 -168 29 -31
14 -78 48 -104 73 l-47 47 54 20 c128 47 707 237 725 238 5 0 15 -5 22 -12z
m3747 -47 c99 -32 230 -75 290 -94 61 -20 154 -51 208 -71 l99 -35 -47 -46
c-70 -71 -139 -98 -257 -103 -125 -5 -225 16 -343 73 -85 42 -225 138 -232
160 -2 6 5 15 16 22 16 10 41 4 142 -31 68 -23 142 -47 163 -53 66 -20 26 3
-70 40 -120 46 -192 88 -210 122 -8 15 -14 29 -14 30 0 2 27 -5 60 -15 33 -10
60 -17 60 -15 0 2 -21 15 -46 30 -35 20 -43 30 -33 36 21 13 21 13 214 -50z
m-5900 -36 c76 -19 717 -21 968 -4 155 11 173 10 222 -7 30 -10 52 -21 50 -25
-3 -3 -32 -9 -65 -13 -34 -4 -71 -11 -83 -16 -17 -7 -12 -8 18 -5 83 10 202
12 240 6 37 -6 38 -8 19 -19 -66 -36 -343 -90 -529 -102 -106 -8 -99 -8 65 -5
102 3 199 7 215 9 17 3 49 7 72 10 22 3 52 8 65 11 20 5 30 -1 52 -29 19 -26
23 -37 14 -41 -7 -2 -40 -14 -73 -26 -216 -77 -329 -100 -515 -104 -172 -5
-234 3 -360 41 -185 57 -332 157 -435 297 -31 42 -28 43 60 22z m7925 9 c0
-11 -42 -68 -79 -107 -89 -95 -259 -194 -396 -230 -153 -41 -386 -48 -544 -18
-80 16 -374 104 -390 118 -2 1 3 11 11 20 8 10 18 26 21 35 5 14 12 15 39 8
50 -14 299 -30 418 -28 62 1 78 3 40 4 -126 6 -286 27 -385 51 -124 31 -210
59 -199 66 5 2 67 5 138 5 71 1 131 3 133 6 3 2 -17 8 -44 11 -75 11 -82 20
-30 40 42 16 59 16 204 5 223 -17 876 -15 968 3 86 18 95 19 95 11z m-5631
-160 l-24 -26 43 21 c24 12 51 21 60 19 24 -5 -64 -97 -148 -156 -116 -81 -99
-78 46 9 91 54 104 58 104 29 0 -11 5 -20 11 -20 17 0 -102 -129 -153 -165
-163 -117 -341 -147 -473 -80 -32 17 -60 35 -61 40 -5 17 444 290 561 341 49
22 61 17 34 -12z m3324 -10 c113 -57 358 -198 440 -254 42 -27 80 -50 86 -50
39 0 -50 -61 -114 -79 -87 -24 -240 0 -340 52 -59 31 -170 132 -211 192 -17
25 -19 34 -9 53 11 20 15 21 26 10 17 -17 122 -80 169 -102 19 -9 27 -11 16
-4 -113 76 -221 177 -198 185 10 4 10 8 1 19 -24 29 59 15 134 -22z m-4194
-138 c10 -12 7 -18 -18 -31 -38 -19 -41 -28 -5 -15 35 14 94 12 122 -4 22 -12
21 -14 -45 -44 -70 -32 -234 -96 -268 -105 -20 -5 -20 -5 0 -6 11 0 99 27 195
60 160 56 264 77 276 58 9 -15 -131 -113 -266 -186 -295 -160 -637 -174 -865
-35 -51 31 -106 83 -99 94 3 4 18 8 34 8 25 0 520 122 790 195 101 28 134 30
149 11z m5331 -62 c135 -35 304 -79 377 -98 72 -20 161 -38 197 -42 37 -4 69
-10 72 -15 6 -11 -88 -85 -145 -114 -219 -110 -524 -94 -793 41 -100 50 -298
188 -298 208 0 15 108 -10 246 -57 198 -68 268 -83 114 -24 -63 24 -142 58
-175 74 l-60 31 44 12 c25 6 57 9 72 6 15 -3 40 -8 55 -11 26 -5 26 -4 -8 15
-43 23 -48 37 -15 43 29 5 31 5 317 -69z m-4285 46 c-4 -7 3 -7 20 0 34 13 55
13 55 0 0 -5 -8 -10 -17 -10 -10 0 -29 -9 -43 -20 l-25 -20 39 16 c21 8 41 13
43 10 3 -3 -36 -52 -88 -108 l-94 -102 89 76 89 77 14 -26 c12 -23 11 -30 -14
-72 -91 -157 -202 -243 -338 -264 -53 -8 -137 5 -171 28 -27 17 -27 18 -7 34
11 9 44 43 73 76 91 102 411 363 375 305z m2887 -30 c6 0 5 7 -2 15 -7 9 -10
18 -7 21 13 13 55 -8 112 -56 33 -28 101 -83 150 -124 80 -65 225 -214 225
-231 0 -17 -81 -38 -152 -38 -69 -1 -85 3 -151 36 -83 41 -166 121 -217 210
-31 54 -36 82 -21 106 8 12 21 4 64 -38 88 -85 107 -91 36 -11 -76 86 -93 115
-84 138 6 15 9 14 22 -5 9 -13 20 -23 25 -23z m-2573 -85 c1 11 41 -60 41 -74
0 -14 -64 -51 -89 -51 -13 0 -21 -6 -21 -16 0 -12 6 -15 26 -10 23 6 25 4 19
-16 -13 -43 -85 -183 -107 -208 -59 -65 -136 -105 -220 -113 -48 -5 -98 9 -98
26 0 31 115 213 194 307 87 104 125 134 113 91 -7 -27 9 -27 25 -1 17 27 26
25 23 -4 -5 -41 -17 -69 -53 -126 -25 -40 -29 -50 -12 -35 47 43 92 116 106
175 7 33 19 69 26 80 13 20 13 20 19 -7 4 -15 7 -24 8 -18z m2327 -40 c3 -14
3 -36 0 -50 -8 -31 -43 -34 -76 -7 l-23 19 29 59 29 60 17 -28 c10 -15 20 -39
24 -53z m98 -1 c15 -6 170 -187 215 -252 13 -18 40 -64 61 -103 36 -65 37 -70
20 -79 -37 -20 -147 -12 -198 14 -92 46 -193 184 -209 283 -6 33 -4 35 16 28
16 -5 21 -2 21 12 0 11 14 -3 35 -35 20 -28 37 -52 40 -52 2 0 -7 25 -21 55
-40 87 -44 166 -6 104 17 -27 27 -18 12 10 -12 23 -10 24 14 15z m-3526 -46
c18 -18 15 -26 -15 -43 l-28 -15 40 5 c23 3 57 0 79 -8 l38 -14 -28 -20 c-16
-11 -70 -42 -121 -69 -51 -26 -91 -50 -89 -51 2 -2 61 25 132 59 109 52 138
62 187 63 31 0 57 -2 57 -6 0 -16 -137 -133 -227 -193 -187 -124 -323 -170
-503 -171 -131 0 -196 16 -283 71 -45 28 -49 34 -32 40 49 17 212 93 475 222
157 78 290 141 296 141 5 1 15 -4 22 -11z m4650 -57 c81 -38 238 -114 350
-170 111 -55 220 -106 242 -112 22 -7 40 -16 40 -20 0 -5 -18 -20 -39 -34
-105 -66 -278 -91 -417 -60 -162 35 -286 97 -459 229 -70 53 -145 119 -145
128 0 2 26 3 58 2 45 -1 80 -12 172 -54 175 -78 175 -72 3 21 -46 24 -83 47
-83 50 0 12 84 28 114 22 20 -4 27 -2 22 6 -4 6 -14 11 -22 11 -8 0 -14 2 -14
5 0 6 24 45 27 45 2 0 69 -31 151 -69z m-3468 -16 c0 -17 4 -23 15 -19 12 5
14 0 9 -27 -4 -19 -15 -56 -26 -83 -10 -27 -16 -51 -13 -54 6 -6 55 103 55
123 0 26 38 -5 45 -36 10 -43 -14 -152 -46 -208 -35 -61 -93 -106 -166 -127
-59 -17 -93 -12 -93 15 0 58 109 309 173 399 35 48 47 53 47 17z m2229 -125
c53 -103 88 -194 105 -272 6 -27 5 -28 -39 -28 -136 0 -266 140 -265 288 1 42
17 82 33 82 4 0 16 -23 28 -50 12 -28 23 -49 25 -47 3 2 -2 30 -9 63 -11 49
-11 63 1 86 13 27 14 28 38 10 13 -9 51 -69 83 -132z m-3125 -7 c0 -14 -11
-34 -23 -45 -24 -19 -20 -22 14 -9 11 5 33 4 48 -2 l28 -9 -23 -25 c-13 -14
-56 -50 -95 -80 -40 -31 -73 -57 -73 -60 0 -2 48 29 106 68 101 68 108 71 170
73 35 1 64 -2 64 -6 0 -19 -200 -212 -263 -254 -217 -143 -446 -183 -610 -106
l-69 32 65 34 c36 18 136 80 223 137 213 141 428 278 434 279 3 0 5 -12 4 -27z
m4066 -68 c83 -53 211 -135 283 -184 73 -48 165 -107 206 -131 l74 -43 -34
-18 c-112 -57 -276 -64 -413 -18 -161 54 -258 119 -394 266 l-92 98 47 7 c46
7 52 5 138 -49 164 -103 167 -103 32 1 -42 32 -77 62 -77 66 0 15 61 30 80 20
30 -16 35 -12 13 13 -16 18 -30 67 -18 67 2 0 72 -43 155 -95z m-2999 28 c9
-25 14 -32 17 -20 4 21 21 22 28 2 4 -8 11 -15 18 -15 6 -1 21 -9 34 -19 18
-15 22 -30 22 -71 0 -64 -21 -109 -70 -154 -40 -36 -110 -62 -137 -51 -26 9
-10 161 28 273 18 50 36 92 40 92 4 0 13 -17 20 -37z m1835 -55 c23 -74 29
-112 29 -183 l0 -90 -35 3 c-68 7 -134 63 -164 140 -23 60 -20 96 9 129 21 24
26 26 35 13 6 -8 14 -28 18 -45 6 -26 8 -21 12 30 4 49 8 60 22 59 10 -1 20 7
23 17 11 35 22 20 51 -73z m829 -124 c61 -50 154 -131 208 -180 174 -158 232
-209 257 -227 21 -15 23 -19 10 -27 -34 -22 -100 -34 -185 -34 -101 1 -180 25
-281 85 -111 67 -235 203 -298 327 l-17 33 48 -2 c43 -2 55 -9 118 -63 104
-89 115 -96 60 -36 -28 30 -61 67 -74 83 l-24 27 22 24 c13 14 30 22 38 19 10
-4 9 4 -6 28 -12 19 -21 40 -21 48 0 16 -6 20 145 -105z m-3415 102 c0 -3 -9
-21 -21 -40 l-21 -36 23 9 c21 7 26 4 37 -22 14 -34 16 -30 -78 -132 -59 -64
-32 -45 68 49 51 47 65 56 77 46 9 -7 26 -9 45 -5 16 4 30 4 30 0 0 -16 -44
-89 -98 -162 -161 -217 -437 -330 -636 -260 -46 16 -55 30 -27 43 11 5 73 59
138 120 113 105 193 177 366 327 68 59 97 78 97 63z m960 -51 c9 -16 16 -21
21 -14 10 17 29 1 30 -24 0 -20 1 -20 8 -3 7 18 8 18 27 -5 10 -13 26 -24 34
-24 25 0 24 -53 -1 -90 -46 -67 -120 -87 -141 -37 -20 48 -19 222 1 222 4 0
14 -11 21 -25z m1398 -47 c1 -40 -4 -95 -11 -123 l-14 -50 -44 3 c-36 2 -50 9
-76 39 -36 40 -44 91 -18 113 12 10 15 10 15 -1 0 -8 8 -2 18 14 19 31 32 35
33 10 0 -14 2 -14 9 3 10 26 30 41 30 23 0 -6 9 0 21 15 11 14 24 26 28 26 4
0 8 -33 9 -72z m-2048 -36 c0 -10 -5 -23 -12 -30 -9 -9 -7 -12 10 -12 17 0 22
-6 22 -27 0 -16 -8 -41 -18 -58 -40 -67 -84 -149 -75 -140 6 6 35 44 65 85 55
74 55 75 102 76 39 1 46 -2 40 -15 -3 -9 -15 -43 -26 -76 -32 -95 -73 -168
-130 -230 -67 -74 -135 -118 -235 -151 -65 -22 -88 -25 -140 -20 -97 10 -98
11 -54 64 22 26 65 88 96 137 56 88 209 295 269 365 16 19 35 34 42 32 7 -1
15 2 19 8 10 16 25 12 25 -8z m2702 0 c45 -30 163 -179 283 -357 63 -93 123
-182 135 -196 24 -32 18 -37 -69 -45 -44 -5 -74 0 -136 20 -137 44 -239 128
-313 260 -43 76 -99 222 -89 233 4 3 18 -2 32 -11 14 -9 25 -12 25 -6 0 23 20
6 74 -64 57 -75 112 -131 64 -66 -42 58 -78 125 -78 148 0 12 9 26 19 32 16 8
18 15 11 40 -10 35 1 39 42 12z m-280 -85 c27 -9 152 -275 203 -432 25 -77 55
-155 66 -174 l20 -33 -63 4 c-185 12 -345 181 -392 414 -21 108 -21 158 0 150
9 -3 22 -6 30 -6 8 0 34 -41 60 -96 51 -107 67 -122 28 -26 -29 73 -42 156
-25 166 6 4 11 26 11 49 l0 42 23 -26 c12 -15 30 -29 39 -32z m-2131 -4 c0
-21 4 -47 8 -58 9 -22 -10 -115 -35 -179 -8 -21 -13 -40 -11 -42 4 -5 56 107
77 167 11 31 17 35 46 35 33 -1 34 -2 34 -43 0 -72 -28 -189 -63 -265 -64
-137 -190 -230 -330 -244 l-69 -7 22 43 c12 24 44 109 72 189 68 202 169 411
198 411 5 0 7 -8 4 -17 -5 -15 -3 -15 10 1 9 11 16 26 16 33 0 7 5 13 10 13 6
0 10 -17 11 -37z m578 -60 c12 -34 21 -91 22 -125 l1 -63 10 45 c5 25 7 75 6
113 -2 37 0 67 3 67 15 0 48 -67 70 -140 20 -66 21 -82 12 -146 -12 -87 -48
-167 -99 -224 -43 -47 -127 -100 -161 -100 -19 0 -21 3 -13 28 5 15 11 92 14
172 5 124 22 275 41 358 7 30 25 28 25 -4 0 -14 4 -23 10 -19 6 3 10 26 10 50
0 24 3 51 6 60 9 22 15 11 43 -72z m955 61 c3 -9 6 -24 6 -35 0 -10 12 -25 28
-33 26 -13 30 -23 41 -93 7 -43 14 -91 17 -108 3 -16 7 -93 10 -170 3 -77 7
-152 9 -167 6 -35 -7 -36 -71 -2 -95 50 -153 128 -183 245 -27 105 -22 183 19
265 17 36 33 64 35 62 2 -2 6 -37 10 -78 4 -41 10 -91 15 -110 7 -29 8 -21 8
40 0 63 10 129 28 188 5 17 21 15 28 -4z m-1237 -71 c15 -33 15 -129 -2 -203
-8 -35 30 75 45 131 10 40 15 46 40 47 23 0 29 -4 34 -30 18 -91 -8 -258 -55
-350 -41 -81 -132 -162 -209 -186 -86 -27 -106 -21 -81 27 5 9 23 95 41 191
17 96 35 189 40 205 5 17 11 43 14 58 8 47 37 126 48 133 7 4 8 -8 4 -37 -7
-48 0 -38 30 45 16 46 18 48 26 27 5 -13 16 -39 25 -58z m1546 34 c26 -24 41
-53 60 -112 25 -79 63 -253 73 -330 5 -34 24 -136 36 -185 9 -41 -136 15 -206
80 -87 80 -131 182 -145 334 -11 127 -11 157 0 150 5 -3 9 0 9 5 0 6 8 11 19
11 19 0 23 -9 72 -152 12 -37 24 -66 26 -64 2 2 -3 32 -12 67 -19 84 -20 155
0 166 8 5 16 21 17 36 3 35 9 34 51 -6z"/>
<path d="M11035 6230 c-3 -6 1 -7 9 -4 18 7 21 14 7 14 -6 0 -13 -4 -16 -10z"/>
<path d="M6551 4664 c0 -11 3 -14 6 -6 3 7 2 16 -1 19 -3 4 -6 -2 -5 -13z"/>
<path d="M9269 4676 c6 -8 22 -16 34 -19 22 -6 22 -6 -2 14 -27 22 -49 26 -32
5z"/>
<path d="M4918 4323 c7 -3 16 -2 19 1 4 3 -2 6 -13 5 -11 0 -14 -3 -6 -6z"/>
<path d="M8450 3715 c0 -14 4 -25 9 -25 4 0 6 11 3 25 -2 14 -6 25 -8 25 -2 0
-4 -11 -4 -25z"/>
</g>
</svg>
