<?xml version="1.0" standalone="no"?>
<!DOCTYPE svg PUBLIC "-//W3C//DTD SVG 20010904//EN"
 "http://www.w3.org/TR/2001/REC-SVG-20010904/DTD/svg10.dtd">
<svg version="1.0" xmlns="http://www.w3.org/2000/svg"
 width="268.000000pt" height="188.000000pt" viewBox="0 0 268.000000 188.000000"
 preserveAspectRatio="xMidYMid meet">

<g transform="translate(0.000000,188.000000) scale(0.100000,-0.100000)"
fill="#000000" stroke="none">
<path d="M390 1321 c0 -56 32 -115 82 -151 46 -34 42 -36 -25 -16 l-47 14 17
-29 c30 -51 88 -99 149 -125 l59 -25 -77 3 c-43 2 -78 -1 -78 -5 0 -5 14 -22
30 -37 33 -31 107 -60 154 -60 67 0 56 -17 -19 -30 l-76 -13 28 -18 c43 -27
150 -52 202 -46 45 4 45 4 16 -9 -16 -7 -55 -18 -85 -25 l-55 -12 40 -19 c31
-14 58 -18 118 -16 42 2 77 2 77 1 0 -2 -24 -15 -52 -29 l-53 -27 30 -13 c37
-16 104 -18 141 -4 39 15 40 6 2 -18 l-32 -21 29 -11 c31 -12 74 -6 118 16 38
20 34 26 -8 8 -36 -15 -95 -19 -95 -6 0 4 18 22 40 40 31 26 40 29 40 16 0
-14 7 -16 40 -11 35 4 39 3 29 -9 -9 -12 -6 -14 20 -14 18 0 41 5 52 10 15 8
19 7 19 -4 0 -8 -20 -27 -43 -41 -52 -30 -55 -30 -59 -8 -2 14 -7 12 -21 -10
-17 -26 -17 -27 1 -27 11 0 40 11 66 25 49 26 56 23 30 -13 -14 -21 -14 -22 5
-22 25 0 71 20 71 32 0 4 7 8 15 8 8 0 15 9 15 20 0 12 10 24 23 30 22 9 22 9
-3 10 -14 1 -37 1 -52 0 -29 -2 -34 5 -19 29 6 10 19 12 47 6 22 -4 36 -4 32
0 -3 3 -39 11 -80 16 -93 13 -168 47 -199 90 -22 32 -24 43 -24 159 0 98 -4
132 -17 156 -18 33 -72 83 -91 85 -7 1 2 5 18 9 25 6 21 8 -25 8 l-55 1 40
-21 c90 -46 114 -93 115 -220 0 -64 -3 -88 -12 -88 -9 0 -10 -3 -2 -8 6 -4 14
-24 18 -44 6 -36 5 -38 -18 -38 -14 0 -44 8 -67 17 l-42 16 49 22 49 22 -45 7
c-53 8 -110 27 -110 37 0 4 19 10 43 14 23 4 59 12 81 18 38 12 37 12 -35 12
-56 1 -86 6 -122 24 -27 12 -47 24 -45 27 3 2 45 7 94 11 117 8 162 21 77 22
-34 1 -72 5 -85 10 -13 6 -39 12 -59 16 -20 3 -49 17 -65 30 l-29 25 70 -5
c39 -4 97 -2 130 3 l60 10 -87 1 c-77 1 -93 5 -149 34 -38 19 -72 46 -86 66
-13 19 -22 35 -21 37 2 1 35 -8 73 -21 39 -13 88 -26 110 -30 24 -4 3 6 -50
25 -49 17 -100 38 -113 46 -25 16 -42 11 -42 -12 0 -32 33 -76 78 -105 36 -23
41 -29 20 -24 -68 17 11 -75 83 -96 l44 -14 -42 -3 c-24 -2 -43 -7 -43 -11 0
-18 53 -55 97 -67 35 -9 41 -13 21 -13 -15 -1 -30 -6 -34 -13 -10 -15 41 -58
69 -58 12 0 29 -5 37 -10 12 -8 9 -10 -12 -10 -65 0 -23 -55 51 -66 41 -6 43
-8 21 -16 -22 -8 -23 -10 -7 -26 10 -9 41 -19 70 -22 l52 -6 -50 -24 c-54 -25
-185 -41 -185 -22 0 6 15 20 34 31 19 12 39 28 46 36 11 13 8 14 -16 10 -80
-14 -174 -12 -174 4 0 3 25 17 55 30 30 13 55 27 55 31 0 4 -35 10 -77 13 -43
3 -96 11 -118 18 l-40 12 75 25 c77 26 78 39 5 41 -59 2 -185 50 -185 71 0 6
24 10 53 11 54 0 149 16 110 18 -48 2 -134 44 -180 87 l-48 44 75 -5 75 -6
-48 24 c-82 42 -126 93 -134 156 -4 30 -3 33 9 23 18 -14 128 -64 128 -57 0 3
-21 16 -47 29 -27 14 -63 35 -80 47 l-33 21 0 -41z m680 -609 c-15 -5 -80 7
-80 15 0 4 8 15 17 25 16 18 17 18 45 -9 16 -15 24 -29 18 -31z m87 -36 c-2
-6 -21 -12 -42 -14 -32 -3 -37 -1 -31 13 3 9 6 20 6 25 0 4 16 3 35 -3 20 -6
34 -15 32 -21z m63 -5 c24 -7 24 -8 -13 -20 -42 -14 -53 -10 -44 14 7 16 17
17 57 6z m80 -52 c0 -16 -56 -69 -73 -69 -20 0 -17 50 3 50 8 1 26 7 40 15 31
18 30 17 30 4z"/>
<path d="M2340 1343 c-14 -10 -52 -32 -85 -50 -78 -42 -59 -42 28 0 50 25 67
30 67 19 0 -8 -8 -21 -17 -29 -10 -8 -12 -12 -5 -8 7 3 12 0 12 -8 0 -24 -73
-95 -125 -122 l-50 -26 75 6 75 5 -48 -44 c-46 -43 -132 -85 -180 -87 -39 -2
56 -18 111 -18 28 -1 52 -5 52 -10 0 -19 -133 -70 -186 -72 -16 0 -38 -4 -49
-8 -15 -6 -4 -13 55 -33 l75 -25 -45 -13 c-25 -7 -81 -16 -125 -19 l-80 -7 62
-30 c34 -16 62 -32 63 -36 0 -12 -81 -16 -152 -7 -54 6 -52 -5 8 -42 52 -32
43 -42 -33 -37 -44 3 -86 13 -118 28 l-50 24 52 6 c29 3 60 13 70 22 16 16 15
18 -8 27 l-24 10 23 0 c12 1 39 8 59 16 59 25 67 55 15 55 -21 0 -24 2 -12 10
8 5 25 10 37 10 28 0 79 43 69 58 -4 7 -19 12 -34 13 -20 0 -14 4 21 13 44 12
97 49 97 68 0 4 -21 8 -47 9 l-48 0 54 20 c59 21 96 49 104 81 5 17 2 19 -21
13 -21 -5 -16 1 19 23 41 26 79 80 79 110 0 17 -20 25 -34 13 -8 -7 -49 -25
-92 -41 -95 -35 -69 -40 31 -6 39 14 71 23 73 22 1 -2 -8 -18 -21 -37 -14 -20
-48 -47 -86 -66 -56 -29 -72 -33 -149 -34 l-87 -1 60 -10 c33 -5 90 -7 128 -4
37 4 67 4 67 2 0 -2 -16 -14 -36 -27 -42 -26 -92 -38 -189 -48 l-70 -7 45 -7
c25 -3 77 -9 115 -13 39 -3 71 -7 72 -8 2 -1 -18 -13 -45 -27 -37 -19 -63 -24
-119 -24 -39 0 -70 -1 -69 -2 1 -2 38 -11 82 -21 l79 -19 -31 -16 c-17 -9 -55
-19 -84 -23 l-53 -7 42 -17 c23 -9 43 -20 43 -26 0 -11 -58 -33 -91 -33 -23
-1 -24 -2 -6 -21 23 -26 17 -31 -42 -37 l-48 -6 28 23 c49 39 59 72 58 187 -2
135 9 173 61 217 23 20 36 36 30 36 -7 0 -30 -16 -52 -36 -52 -47 -64 -93 -56
-207 9 -113 -10 -162 -76 -201 -41 -24 -70 -31 -193 -52 -22 -4 -34 -9 -27
-11 18 -7 14 -33 -5 -33 -16 -1 -16 -2 1 -12 14 -8 21 -8 24 0 2 7 12 6 30 -4
15 -8 34 -14 42 -14 9 0 15 -9 15 -25 0 -32 -16 -32 -54 1 l-31 26 0 -24 c-1
-22 -1 -22 -25 7 -14 17 -25 36 -25 44 0 8 -3 12 -6 8 -10 -10 7 -47 38 -83
36 -41 51 -44 37 -8 -5 15 -7 29 -4 32 3 3 5 0 5 -6 0 -15 52 -42 80 -42 20 0
20 1 6 22 -25 35 -20 37 33 11 67 -34 84 -28 53 17 -14 19 -22 27 -18 17 11
-33 -4 -38 -46 -15 -42 24 -78 69 -42 53 21 -9 106 -18 87 -9 -27 12 -11 22
27 17 33 -5 40 -3 40 12 0 14 8 10 39 -16 22 -19 40 -37 40 -41 2 -13 -58 -9
-94 6 -42 18 -46 12 -7 -8 43 -22 86 -28 117 -16 l29 11 -42 25 c-51 31 -54
38 -7 18 56 -23 175 -14 175 14 0 4 -23 19 -52 33 l-52 26 79 -5 c60 -3 90 0
119 12 22 9 37 19 34 21 -3 3 -31 12 -63 20 -79 21 -100 34 -44 28 52 -6 152
17 198 45 l31 19 -75 13 c-75 13 -86 30 -19 30 49 0 118 28 153 62 17 17 31
33 31 37 0 3 -35 5 -77 3 l-78 -3 59 25 c63 27 115 70 146 123 11 18 18 33 17
33 -1 0 -20 -7 -42 -15 -62 -22 -72 -18 -28 14 49 36 86 106 81 156 l-3 36
-25 -18z m-670 -642 c0 -5 3 -17 6 -26 6 -14 1 -16 -31 -13 -47 4 -55 20 -18
35 37 14 43 15 43 4z m-73 -36 c9 -24 -2 -28 -44 -14 -37 12 -37 13 -13 20 40
11 50 10 57 -6z m-83 -11 c11 -28 7 -32 -21 -25 -37 10 -44 41 -10 41 14 0 28
-7 31 -16z"/>
<path d="M1948 1193 c7 -3 16 -2 19 1 4 3 -2 6 -13 5 -11 0 -14 -3 -6 -6z"/>
<path d="M1829 1179 c26 -5 50 -5 60 1 11 7 -2 9 -44 9 l-60 -1 44 -9z"/>
<path d="M1015 1166 c79 -30 114 -103 95 -203 -16 -91 -13 -147 11 -177 24
-31 76 -59 139 -76 54 -14 93 -37 85 -50 -4 -6 -1 -10 4 -10 6 0 11 4 11 9 0
18 -52 50 -114 71 -74 24 -126 72 -128 116 0 16 2 74 6 129 7 90 6 103 -13
132 -25 40 -57 61 -102 68 -34 6 -34 6 6 -9z"/>
<path d="M1711 1162 c-67 -34 -95 -101 -80 -193 5 -30 10 -76 10 -104 2 -46
-1 -52 -38 -85 -23 -20 -65 -43 -96 -53 -55 -17 -107 -50 -107 -68 0 -5 5 -9
11 -9 5 0 8 4 4 10 -8 13 31 36 85 50 59 15 123 53 144 84 19 30 20 72 5 166
-10 60 -9 76 5 114 20 52 41 73 93 92 22 8 30 13 18 14 -11 0 -35 -8 -54 -18z"/>
<path d="M1325 586 c-10 -14 -23 -26 -30 -26 -7 0 -15 -9 -18 -20 -4 -16 -2
-18 13 -10 22 12 64 69 57 76 -3 3 -13 -6 -22 -20z"/>
</g>
</svg>
